<?xml version="1.0" encoding="utf-8" standalone="no"?>
<!DOCTYPE svg PUBLIC "-//W3C//DTD SVG 1.1//EN"
  "http://www.w3.org/Graphics/SVG/1.1/DTD/svg11.dtd">
<svg xmlns:xlink="http://www.w3.org/1999/xlink" width="872.39952pt" height="656.39952pt" viewBox="0 0 872.39952 656.39952" xmlns="http://www.w3.org/2000/svg" version="1.1">
 <metadata>
  <rdf:RDF xmlns:dc="http://purl.org/dc/elements/1.1/" xmlns:cc="http://creativecommons.org/ns#" xmlns:rdf="http://www.w3.org/1999/02/22-rdf-syntax-ns#">
   <cc:Work>
    <dc:type rdf:resource="http://purl.org/dc/dcmitype/StillImage"/>
    <dc:date>2026-09-27T18:07:00.577811</dc:date>
    <dc:format>image/svg+xml</dc:format>
    <dc:creator>
     <cc:Agent>
      <dc:title>Matplotlib v3.10.8, https://matplotlib.org/</dc:title>
     </cc:Agent>
    </dc:creator>
   </cc:Work>
  </rdf:RDF>
 </metadata>
 <defs>
  <style type="text/css">*{stroke-linejoin: round; stroke-linecap: butt}</style>
 </defs>
 <g id="figure_1">
  <g id="patch_1">
   <path d="M 0 656.39952 
L 872.39952 656.39952 
L 872.39952 0 
L 0 0 
z
" style="fill: #ffffff"/>
  </g>
  <g id="axes_1">
   <g id="patch_2">
    <path d="M 47.79 214.892392 
L 865.19952 214.892392 
L 865.19952 29.60048 
L 47.79 29.60048 
z
" style="fill: #ffffff"/>
   </g>
   <g id="FillBetweenPolyCollection_1">
    <path d="M 47.79 173.609507 
L 47.79 214.892392 
L 70.49582 214.892392 
L 70.49582 214.892392 
L 93.20164 214.892392 
L 93.20164 214.892392 
L 115.90746 214.892392 
L 115.90746 214.892392 
L 138.61328 214.892392 
L 138.61328 214.892392 
L 161.3191 214.892392 
L 161.3191 214.892392 
L 184.02492 214.892392 
L 184.02492 214.892392 
L 206.73074 214.892392 
L 206.73074 214.892392 
L 229.43656 214.892392 
L 229.43656 214.892392 
L 252.14238 214.892392 
L 252.14238 214.892392 
L 274.8482 214.892392 
L 274.8482 214.892392 
L 297.55402 214.892392 
L 297.55402 214.892392 
L 320.25984 214.892392 
L 320.25984 214.892392 
L 342.96566 214.892392 
L 342.96566 214.892392 
L 365.67148 214.892392 
L 365.67148 214.892392 
L 388.3773 214.892392 
L 388.3773 214.892392 
L 411.08312 214.892392 
L 411.08312 214.892392 
L 433.78894 214.892392 
L 433.78894 214.892392 
L 456.49476 214.892392 
L 456.49476 214.892392 
L 479.20058 214.892392 
L 479.20058 214.892392 
L 501.9064 214.892392 
L 501.9064 214.892392 
L 524.61222 214.892392 
L 524.61222 214.892392 
L 547.31804 214.892392 
L 547.31804 214.892392 
L 570.02386 214.892392 
L 570.02386 214.892392 
L 592.72968 214.892392 
L 592.72968 214.892392 
L 615.4355 214.892392 
L 615.4355 214.892392 
L 638.14132 214.892392 
L 638.14132 214.892392 
L 660.84714 214.892392 
L 660.84714 214.892392 
L 683.55296 214.892392 
L 683.55296 214.892392 
L 706.25878 214.892392 
L 706.25878 214.892392 
L 728.9646 214.892392 
L 728.9646 214.892392 
L 751.67042 214.892392 
L 751.67042 214.892392 
L 774.37624 214.892392 
L 774.37624 214.892392 
L 797.08206 214.892392 
L 797.08206 214.892392 
L 819.78788 214.892392 
L 819.78788 214.892392 
L 842.4937 214.892392 
L 842.4937 214.892392 
L 865.19952 214.892392 
L 865.19952 214.892392 
L 865.19952 132.793758 
L 865.19952 132.793758 
L 865.19952 132.793758 
L 842.4937 132.793758 
L 842.4937 191.706502 
L 819.78788 191.706502 
L 819.78788 153.191519 
L 797.08206 153.191519 
L 797.08206 166.423375 
L 774.37624 166.423375 
L 774.37624 130.937141 
L 751.67042 130.937141 
L 751.67042 132.982576 
L 728.9646 132.982576 
L 728.9646 170.965029 
L 706.25878 170.965029 
L 706.25878 170.814664 
L 683.55296 170.814664 
L 683.55296 169.141303 
L 660.84714 169.141303 
L 660.84714 170.530894 
L 638.14132 170.530894 
L 638.14132 173.502176 
L 615.4355 173.502176 
L 615.4355 175.656289 
L 592.72968 175.656289 
L 592.72968 214.892392 
L 570.02386 214.892392 
L 570.02386 214.892392 
L 547.31804 214.892392 
L 547.31804 214.892392 
L 524.61222 214.892392 
L 524.61222 214.892392 
L 501.9064 214.892392 
L 501.9064 214.892392 
L 479.20058 214.892392 
L 479.20058 214.892392 
L 456.49476 214.892392 
L 456.49476 214.892392 
L 433.78894 214.892392 
L 433.78894 214.892392 
L 411.08312 214.892392 
L 411.08312 214.892392 
L 388.3773 214.892392 
L 388.3773 214.892392 
L 365.67148 214.892392 
L 365.67148 214.892392 
L 342.96566 214.892392 
L 342.96566 214.892392 
L 320.25984 214.892392 
L 320.25984 172.666291 
L 297.55402 172.666291 
L 297.55402 172.070274 
L 274.8482 172.070274 
L 274.8482 172.429463 
L 252.14238 172.429463 
L 252.14238 169.141303 
L 229.43656 169.141303 
L 229.43656 171.154386 
L 206.73074 171.154386 
L 206.73074 169.141303 
L 184.02492 169.141303 
L 184.02492 173.917621 
L 161.3191 173.917621 
L 161.3191 171.640552 
L 138.61328 171.640552 
L 138.61328 169.141303 
L 115.90746 169.141303 
L 115.90746 173.207487 
L 93.20164 173.207487 
L 93.20164 171.071937 
L 70.49582 171.071937 
L 70.49582 173.609507 
L 47.79 173.609507 
z
" clip-path="url(#paf10ccd58f)" style="fill: #529b89"/>
   </g>
   <g id="FillBetweenPolyCollection_2">
    <path d="M 47.79 42.892109 
L 47.79 173.609507 
L 70.49582 173.609507 
L 70.49582 171.071937 
L 93.20164 171.071937 
L 93.20164 173.207487 
L 115.90746 173.207487 
L 115.90746 169.141303 
L 138.61328 169.141303 
L 138.61328 171.640552 
L 161.3191 171.640552 
L 161.3191 173.917621 
L 184.02492 173.917621 
L 184.02492 169.141303 
L 206.73074 169.141303 
L 206.73074 171.154386 
L 229.43656 171.154386 
L 229.43656 169.141303 
L 252.14238 169.141303 
L 252.14238 172.429463 
L 274.8482 172.429463 
L 274.8482 172.070274 
L 297.55402 172.070274 
L 297.55402 172.666291 
L 320.25984 172.666291 
L 320.25984 214.892392 
L 342.96566 214.892392 
L 342.96566 214.892392 
L 365.67148 214.892392 
L 365.67148 214.892392 
L 388.3773 214.892392 
L 388.3773 214.892392 
L 411.08312 214.892392 
L 411.08312 214.892392 
L 433.78894 214.892392 
L 433.78894 214.892392 
L 456.49476 214.892392 
L 456.49476 214.892392 
L 479.20058 214.892392 
L 479.20058 214.892392 
L 501.9064 214.892392 
L 501.9064 214.892392 
L 524.61222 214.892392 
L 524.61222 214.892392 
L 547.31804 214.892392 
L 547.31804 214.892392 
L 570.02386 214.892392 
L 570.02386 214.892392 
L 592.72968 214.892392 
L 592.72968 175.656289 
L 615.4355 175.656289 
L 615.4355 173.502176 
L 638.14132 173.502176 
L 638.14132 170.530894 
L 660.84714 170.530894 
L 660.84714 169.141303 
L 683.55296 169.141303 
L 683.55296 170.814664 
L 706.25878 170.814664 
L 706.25878 170.965029 
L 728.9646 170.965029 
L 728.9646 132.982576 
L 751.67042 132.982576 
L 751.67042 130.937141 
L 774.37624 130.937141 
L 774.37624 166.423375 
L 797.08206 166.423375 
L 797.08206 153.191519 
L 819.78788 153.191519 
L 819.78788 191.706502 
L 842.4937 191.706502 
L 842.4937 132.793758 
L 865.19952 132.793758 
L 865.19952 132.793758 
L 865.19952 49.96433 
L 865.19952 49.96433 
L 865.19952 49.96433 
L 842.4937 49.96433 
L 842.4937 126.347803 
L 819.78788 126.347803 
L 819.78788 87.832819 
L 797.08206 87.832819 
L 797.08206 101.064676 
L 774.37624 101.064676 
L 774.37624 67.662206 
L 751.67042 67.662206 
L 751.67042 71.519394 
L 728.9646 71.519394 
L 728.9646 105.60633 
L 706.25878 105.60633 
L 706.25878 105.455965 
L 683.55296 105.455965 
L 683.55296 103.782604 
L 660.84714 103.782604 
L 660.84714 68.960417 
L 638.14132 68.960417 
L 638.14132 69.680599 
L 615.4355 69.680599 
L 615.4355 65.479725 
L 592.72968 65.479725 
L 592.72968 84.174994 
L 570.02386 84.174994 
L 570.02386 84.174994 
L 547.31804 84.174994 
L 547.31804 84.174994 
L 524.61222 84.174994 
L 524.61222 84.174994 
L 501.9064 84.174994 
L 501.9064 84.174994 
L 479.20058 84.174994 
L 479.20058 84.174994 
L 456.49476 84.174994 
L 456.49476 84.174994 
L 433.78894 84.174994 
L 433.78894 84.174994 
L 411.08312 84.174994 
L 411.08312 84.174994 
L 388.3773 84.174994 
L 388.3773 84.174994 
L 365.67148 84.174994 
L 365.67148 84.174994 
L 342.96566 84.174994 
L 342.96566 84.174994 
L 320.25984 84.174994 
L 320.25984 41.948892 
L 297.55402 41.948892 
L 297.55402 41.352876 
L 274.8482 41.352876 
L 274.8482 41.712065 
L 252.14238 41.712065 
L 252.14238 54.678021 
L 229.43656 54.678021 
L 229.43656 56.622092 
L 206.73074 56.622092 
L 206.73074 38.423904 
L 184.02492 38.423904 
L 184.02492 64.714561 
L 161.3191 64.714561 
L 161.3191 40.923154 
L 138.61328 40.923154 
L 138.61328 38.423904 
L 115.90746 38.423904 
L 115.90746 69.675307 
L 93.20164 69.675307 
L 93.20164 40.354539 
L 70.49582 40.354539 
L 70.49582 42.892109 
L 47.79 42.892109 
z
" clip-path="url(#paf10ccd58f)" style="fill: #617ca4"/>
   </g>
   <g id="FillBetweenPolyCollection_3">
    <path d="M 47.79 42.892109 
L 47.79 42.892109 
L 70.49582 42.892109 
L 70.49582 40.354539 
L 93.20164 40.354539 
L 93.20164 69.675307 
L 115.90746 69.675307 
L 115.90746 38.423904 
L 138.61328 38.423904 
L 138.61328 40.923154 
L 161.3191 40.923154 
L 161.3191 64.714561 
L 184.02492 64.714561 
L 184.02492 38.423904 
L 206.73074 38.423904 
L 206.73074 56.622092 
L 229.43656 56.622092 
L 229.43656 54.678021 
L 252.14238 54.678021 
L 252.14238 41.712065 
L 274.8482 41.712065 
L 274.8482 41.352876 
L 297.55402 41.352876 
L 297.55402 41.948892 
L 320.25984 41.948892 
L 320.25984 84.174994 
L 342.96566 84.174994 
L 342.96566 84.174994 
L 365.67148 84.174994 
L 365.67148 84.174994 
L 388.3773 84.174994 
L 388.3773 84.174994 
L 411.08312 84.174994 
L 411.08312 84.174994 
L 433.78894 84.174994 
L 433.78894 84.174994 
L 456.49476 84.174994 
L 456.49476 84.174994 
L 479.20058 84.174994 
L 479.20058 84.174994 
L 501.9064 84.174994 
L 501.9064 84.174994 
L 524.61222 84.174994 
L 524.61222 84.174994 
L 547.31804 84.174994 
L 547.31804 84.174994 
L 570.02386 84.174994 
L 570.02386 84.174994 
L 592.72968 84.174994 
L 592.72968 65.479725 
L 615.4355 65.479725 
L 615.4355 69.680599 
L 638.14132 69.680599 
L 638.14132 68.960417 
L 660.84714 68.960417 
L 660.84714 103.782604 
L 683.55296 103.782604 
L 683.55296 105.455965 
L 706.25878 105.455965 
L 706.25878 105.60633 
L 728.9646 105.60633 
L 728.9646 71.519394 
L 751.67042 71.519394 
L 751.67042 67.662206 
L 774.37624 67.662206 
L 774.37624 101.064676 
L 797.08206 101.064676 
L 797.08206 87.832819 
L 819.78788 87.832819 
L 819.78788 126.347803 
L 842.4937 126.347803 
L 842.4937 49.96433 
L 865.19952 49.96433 
L 865.19952 49.96433 
L 865.19952 49.96433 
L 865.19952 49.96433 
L 865.19952 49.96433 
L 842.4937 49.96433 
L 842.4937 54.322565 
L 819.78788 54.322565 
L 819.78788 79.00114 
L 797.08206 79.00114 
L 797.08206 78.625344 
L 774.37624 78.625344 
L 774.37624 67.662206 
L 751.67042 67.662206 
L 751.67042 71.519394 
L 728.9646 71.519394 
L 728.9646 74.024292 
L 706.25878 74.024292 
L 706.25878 92.194002 
L 683.55296 92.194002 
L 683.55296 95.07285 
L 660.84714 95.07285 
L 660.84714 68.960417 
L 638.14132 68.960417 
L 638.14132 69.680599 
L 615.4355 69.680599 
L 615.4355 65.479725 
L 592.72968 65.479725 
L 592.72968 69.653088 
L 570.02386 69.653088 
L 570.02386 73.218711 
L 547.31804 73.218711 
L 547.31804 75.0567 
L 524.61222 75.0567 
L 524.61222 80.201405 
L 501.9064 80.201405 
L 501.9064 79.459925 
L 479.20058 79.459925 
L 479.20058 61.501507 
L 456.49476 61.501507 
L 456.49476 50.548877 
L 433.78894 50.548877 
L 433.78894 60.109431 
L 411.08312 60.109431 
L 411.08312 59.890948 
L 388.3773 59.890948 
L 388.3773 56.127511 
L 365.67148 56.127511 
L 365.67148 52.373588 
L 342.96566 52.373588 
L 342.96566 56.417733 
L 320.25984 56.417733 
L 320.25984 41.948892 
L 297.55402 41.948892 
L 297.55402 41.352876 
L 274.8482 41.352876 
L 274.8482 41.712065 
L 252.14238 41.712065 
L 252.14238 54.678021 
L 229.43656 54.678021 
L 229.43656 56.622092 
L 206.73074 56.622092 
L 206.73074 38.423904 
L 184.02492 38.423904 
L 184.02492 64.714561 
L 161.3191 64.714561 
L 161.3191 40.923154 
L 138.61328 40.923154 
L 138.61328 38.423904 
L 115.90746 38.423904 
L 115.90746 69.675307 
L 93.20164 69.675307 
L 93.20164 40.354539 
L 70.49582 40.354539 
L 70.49582 42.892109 
L 47.79 42.892109 
z
" clip-path="url(#paf10ccd58f)" style="fill: #dfa54a"/>
   </g>
   <g id="patch_3">
    <path d="M 320.25984 214.892392 
L 592.72968 214.892392 
L 592.72968 29.60048 
L 320.25984 29.60048 
z
" clip-path="url(#paf10ccd58f)" style="fill: #e6b9b7; opacity: 0.25; stroke: #e6b9b7; stroke-linejoin: miter"/>
   </g>
   <g id="matplotlib.axis_1">
    <g id="xtick_1">
     <g id="line2d_1">
      <path d="M 93.20164 214.892392 
L 93.20164 29.60048 
" clip-path="url(#paf10ccd58f)" style="fill: none; stroke: #b0b0b0; stroke-opacity: 0.15; stroke-width: 0.8; stroke-linecap: square"/>
     </g>
     <g id="line2d_2">
      <defs>
       <path id="m18798ff07d" d="M 0 0 
L 0 3.5 
" style="stroke: #000000; stroke-width: 0.8"/>
      </defs>
      <g>
       <use xlink:href="#m18798ff07d" x="93.20164" y="214.892392" style="stroke: #000000; stroke-width: 0.8"/>
      </g>
     </g>
    </g>
    <g id="xtick_2">
     <g id="line2d_3">
      <path d="M 206.73074 214.892392 
L 206.73074 29.60048 
" clip-path="url(#paf10ccd58f)" style="fill: none; stroke: #b0b0b0; stroke-opacity: 0.15; stroke-width: 0.8; stroke-linecap: square"/>
     </g>
     <g id="line2d_4">
      <g>
       <use xlink:href="#m18798ff07d" x="206.73074" y="214.892392" style="stroke: #000000; stroke-width: 0.8"/>
      </g>
     </g>
    </g>
    <g id="xtick_3">
     <g id="line2d_5">
      <path d="M 320.25984 214.892392 
L 320.25984 29.60048 
" clip-path="url(#paf10ccd58f)" style="fill: none; stroke: #b0b0b0; stroke-opacity: 0.15; stroke-width: 0.8; stroke-linecap: square"/>
     </g>
     <g id="line2d_6">
      <g>
       <use xlink:href="#m18798ff07d" x="320.25984" y="214.892392" style="stroke: #000000; stroke-width: 0.8"/>
      </g>
     </g>
    </g>
    <g id="xtick_4">
     <g id="line2d_7">
      <path d="M 433.78894 214.892392 
L 433.78894 29.60048 
" clip-path="url(#paf10ccd58f)" style="fill: none; stroke: #b0b0b0; stroke-opacity: 0.15; stroke-width: 0.8; stroke-linecap: square"/>
     </g>
     <g id="line2d_8">
      <g>
       <use xlink:href="#m18798ff07d" x="433.78894" y="214.892392" style="stroke: #000000; stroke-width: 0.8"/>
      </g>
     </g>
    </g>
    <g id="xtick_5">
     <g id="line2d_9">
      <path d="M 547.31804 214.892392 
L 547.31804 29.60048 
" clip-path="url(#paf10ccd58f)" style="fill: none; stroke: #b0b0b0; stroke-opacity: 0.15; stroke-width: 0.8; stroke-linecap: square"/>
     </g>
     <g id="line2d_10">
      <g>
       <use xlink:href="#m18798ff07d" x="547.31804" y="214.892392" style="stroke: #000000; stroke-width: 0.8"/>
      </g>
     </g>
    </g>
    <g id="xtick_6">
     <g id="line2d_11">
      <path d="M 660.84714 214.892392 
L 660.84714 29.60048 
" clip-path="url(#paf10ccd58f)" style="fill: none; stroke: #b0b0b0; stroke-opacity: 0.15; stroke-width: 0.8; stroke-linecap: square"/>
     </g>
     <g id="line2d_12">
      <g>
       <use xlink:href="#m18798ff07d" x="660.84714" y="214.892392" style="stroke: #000000; stroke-width: 0.8"/>
      </g>
     </g>
    </g>
    <g id="xtick_7">
     <g id="line2d_13">
      <path d="M 774.37624 214.892392 
L 774.37624 29.60048 
" clip-path="url(#paf10ccd58f)" style="fill: none; stroke: #b0b0b0; stroke-opacity: 0.15; stroke-width: 0.8; stroke-linecap: square"/>
     </g>
     <g id="line2d_14">
      <g>
       <use xlink:href="#m18798ff07d" x="774.37624" y="214.892392" style="stroke: #000000; stroke-width: 0.8"/>
      </g>
     </g>
    </g>
   </g>
   <g id="matplotlib.axis_2">
    <g id="ytick_1">
     <g id="line2d_15">
      <path d="M 47.79 214.892392 
L 865.19952 214.892392 
" clip-path="url(#paf10ccd58f)" style="fill: none; stroke: #b0b0b0; stroke-opacity: 0.15; stroke-width: 0.8; stroke-linecap: square"/>
     </g>
     <g id="line2d_16">
      <defs>
       <path id="me0ea35c2a5" d="M 0 0 
L -3.5 0 
" style="stroke: #000000; stroke-width: 0.8"/>
      </defs>
      <g>
       <use xlink:href="#me0ea35c2a5" x="47.79" y="214.892392" style="stroke: #000000; stroke-width: 0.8"/>
      </g>
     </g>
     <g id="text_1">
      <text style="font-size: 11px; font-family: 'Noto Sans CJK JP'; text-anchor: end" x="40.79" y="219.270048" transform="rotate(-0 40.79 219.270048)">0</text>
     </g>
    </g>
    <g id="ytick_2">
     <g id="line2d_17">
      <path d="M 47.79 182.213043 
L 865.19952 182.213043 
" clip-path="url(#paf10ccd58f)" style="fill: none; stroke: #b0b0b0; stroke-opacity: 0.15; stroke-width: 0.8; stroke-linecap: square"/>
     </g>
     <g id="line2d_18">
      <g>
       <use xlink:href="#me0ea35c2a5" x="47.79" y="182.213043" style="stroke: #000000; stroke-width: 0.8"/>
      </g>
     </g>
     <g id="text_2">
      <text style="font-size: 11px; font-family: 'Noto Sans CJK JP'; text-anchor: end" x="40.79" y="186.590699" transform="rotate(-0 40.79 186.590699)">50</text>
     </g>
    </g>
    <g id="ytick_3">
     <g id="line2d_19">
      <path d="M 47.79 149.533693 
L 865.19952 149.533693 
" clip-path="url(#paf10ccd58f)" style="fill: none; stroke: #b0b0b0; stroke-opacity: 0.15; stroke-width: 0.8; stroke-linecap: square"/>
     </g>
     <g id="line2d_20">
      <g>
       <use xlink:href="#me0ea35c2a5" x="47.79" y="149.533693" style="stroke: #000000; stroke-width: 0.8"/>
      </g>
     </g>
     <g id="text_3">
      <text style="font-size: 11px; font-family: 'Noto Sans CJK JP'; text-anchor: end" x="40.79" y="153.911349" transform="rotate(-0 40.79 153.911349)">100</text>
     </g>
    </g>
    <g id="ytick_4">
     <g id="line2d_21">
      <path d="M 47.79 116.854343 
L 865.19952 116.854343 
" clip-path="url(#paf10ccd58f)" style="fill: none; stroke: #b0b0b0; stroke-opacity: 0.15; stroke-width: 0.8; stroke-linecap: square"/>
     </g>
     <g id="line2d_22">
      <g>
       <use xlink:href="#me0ea35c2a5" x="47.79" y="116.854343" style="stroke: #000000; stroke-width: 0.8"/>
      </g>
     </g>
     <g id="text_4">
      <text style="font-size: 11px; font-family: 'Noto Sans CJK JP'; text-anchor: end" x="40.79" y="121.232" transform="rotate(-0 40.79 121.232)">150</text>
     </g>
    </g>
    <g id="ytick_5">
     <g id="line2d_23">
      <path d="M 47.79 84.174994 
L 865.19952 84.174994 
" clip-path="url(#paf10ccd58f)" style="fill: none; stroke: #b0b0b0; stroke-opacity: 0.15; stroke-width: 0.8; stroke-linecap: square"/>
     </g>
     <g id="line2d_24">
      <g>
       <use xlink:href="#me0ea35c2a5" x="47.79" y="84.174994" style="stroke: #000000; stroke-width: 0.8"/>
      </g>
     </g>
     <g id="text_5">
      <text style="font-size: 11px; font-family: 'Noto Sans CJK JP'; text-anchor: end" x="40.79" y="88.55265" transform="rotate(-0 40.79 88.55265)">200</text>
     </g>
    </g>
    <g id="ytick_6">
     <g id="line2d_25">
      <path d="M 47.79 51.495644 
L 865.19952 51.495644 
" clip-path="url(#paf10ccd58f)" style="fill: none; stroke: #b0b0b0; stroke-opacity: 0.15; stroke-width: 0.8; stroke-linecap: square"/>
     </g>
     <g id="line2d_26">
      <g>
       <use xlink:href="#me0ea35c2a5" x="47.79" y="51.495644" style="stroke: #000000; stroke-width: 0.8"/>
      </g>
     </g>
     <g id="text_6">
      <text style="font-size: 11px; font-family: 'Noto Sans CJK JP'; text-anchor: end" x="40.79" y="55.8733" transform="rotate(-0 40.79 55.8733)">250</text>
     </g>
    </g>
    <g id="text_7">
     <text style="font-size: 11px; font-family: 'Noto Sans CJK JP'; text-anchor: middle" x="15.955313" y="122.246436" transform="rotate(-90 15.955313 122.246436)">功率 / kW</text>
    </g>
   </g>
   <g id="line2d_27">
    <path d="M 47.79 42.892109 
L 70.49582 42.892109 
L 70.49582 40.354539 
L 93.20164 40.354539 
L 93.20164 69.675307 
L 115.90746 69.675307 
L 115.90746 38.423904 
L 138.61328 38.423904 
L 138.61328 40.923154 
L 161.3191 40.923154 
L 161.3191 64.714561 
L 184.02492 64.714561 
L 184.02492 38.423904 
L 206.73074 38.423904 
L 206.73074 56.622092 
L 229.43656 56.622092 
L 229.43656 54.678021 
L 252.14238 54.678021 
L 252.14238 41.712065 
L 274.8482 41.712065 
L 274.8482 41.352876 
L 297.55402 41.352876 
L 297.55402 41.948892 
L 320.25984 41.948892 
L 320.25984 56.417733 
L 342.96566 56.417733 
L 342.96566 52.373588 
L 365.67148 52.373588 
L 365.67148 56.127511 
L 388.3773 56.127511 
L 388.3773 59.890948 
L 411.08312 59.890948 
L 411.08312 60.109431 
L 433.78894 60.109431 
L 433.78894 50.548877 
L 456.49476 50.548877 
L 456.49476 61.501507 
L 479.20058 61.501507 
L 479.20058 79.459925 
L 501.9064 79.459925 
L 501.9064 80.201405 
L 524.61222 80.201405 
L 524.61222 75.0567 
L 547.31804 75.0567 
L 547.31804 73.218711 
L 570.02386 73.218711 
L 570.02386 69.653088 
L 592.72968 69.653088 
L 592.72968 65.479725 
L 615.4355 65.479725 
L 615.4355 69.680599 
L 638.14132 69.680599 
L 638.14132 68.960417 
L 660.84714 68.960417 
L 660.84714 95.07285 
L 683.55296 95.07285 
L 683.55296 92.194002 
L 706.25878 92.194002 
L 706.25878 74.024292 
L 728.9646 74.024292 
L 728.9646 71.519394 
L 751.67042 71.519394 
L 751.67042 67.662206 
L 774.37624 67.662206 
L 774.37624 78.625344 
L 797.08206 78.625344 
L 797.08206 79.00114 
L 819.78788 79.00114 
L 819.78788 54.322565 
L 842.4937 54.322565 
L 842.4937 49.96433 
L 865.19952 49.96433 
L 865.19952 49.96433 
" clip-path="url(#paf10ccd58f)" style="fill: none; stroke: #202b35; stroke-width: 1.2; stroke-linecap: square"/>
   </g>
   <g id="patch_4">
    <path d="M 47.79 214.892392 
L 47.79 29.60048 
" style="fill: none; stroke: #000000; stroke-width: 0.8; stroke-linejoin: miter; stroke-linecap: square"/>
   </g>
   <g id="patch_5">
    <path d="M 47.79 214.892392 
L 865.19952 214.892392 
" style="fill: none; stroke: #000000; stroke-width: 0.8; stroke-linejoin: miter; stroke-linecap: square"/>
   </g>
   <g id="legend_1">
    <g id="patch_6">
     <path d="M 650.171239 44.863917 
L 668.171239 44.863917 
L 668.171239 38.563917 
L 650.171239 38.563917 
z
" style="fill: #529b89"/>
    </g>
    <g id="text_8">
     <text style="font-size: 9px; font-family: 'Noto Sans CJK JP'; text-anchor: start" x="675.371239" y="44.863917" transform="rotate(-0 675.371239 44.863917)">风电</text>
    </g>
    <g id="patch_7">
     <path d="M 650.171239 58.588917 
L 668.171239 58.588917 
L 668.171239 52.288917 
L 650.171239 52.288917 
z
" style="fill: #617ca4"/>
    </g>
    <g id="text_9">
     <text style="font-size: 9px; font-family: 'Noto Sans CJK JP'; text-anchor: start" x="675.371239" y="58.588917" transform="rotate(-0 675.371239 58.588917)">柴油机</text>
    </g>
    <g id="patch_8">
     <path d="M 720.371239 44.863917 
L 738.371239 44.863917 
L 738.371239 38.563917 
L 720.371239 38.563917 
z
" style="fill: #dfa54a"/>
    </g>
    <g id="text_10">
     <text style="font-size: 9px; font-family: 'Noto Sans CJK JP'; text-anchor: start" x="745.571239" y="44.863917" transform="rotate(-0 745.571239 44.863917)">普通电池放电</text>
    </g>
    <g id="line2d_28">
     <path d="M 720.371239 55.528917 
L 729.371239 55.528917 
L 729.371239 55.528917 
L 738.371239 55.528917 
L 738.371239 55.528917 
" style="fill: none; stroke: #202b35; stroke-width: 1.2; stroke-linecap: square"/>
    </g>
    <g id="text_11">
     <text style="font-size: 9px; font-family: 'Noto Sans CJK JP'; text-anchor: start" x="745.571239" y="58.678917" transform="rotate(-0 745.571239 58.678917)">主母线用电（含充电/加热）</text>
    </g>
   </g>
  </g>
  <g id="axes_2">
   <g id="patch_9">
    <path d="M 47.79 413.082128 
L 865.19952 413.082128 
L 865.19952 227.790216 
L 47.79 227.790216 
z
" style="fill: #ffffff"/>
   </g>
   <g id="patch_10">
    <path d="M 320.25984 413.082128 
L 592.72968 413.082128 
L 592.72968 227.790216 
L 320.25984 227.790216 
z
" clip-path="url(#p7a17091738)" style="fill: #e6b9b7; opacity: 0.25; stroke: #e6b9b7; stroke-linejoin: miter"/>
   </g>
   <g id="matplotlib.axis_3">
    <g id="xtick_8">
     <g id="line2d_29">
      <path d="M 93.20164 413.082128 
L 93.20164 227.790216 
" clip-path="url(#p7a17091738)" style="fill: none; stroke: #b0b0b0; stroke-opacity: 0.15; stroke-width: 0.8; stroke-linecap: square"/>
     </g>
     <g id="line2d_30">
      <g>
       <use xlink:href="#m18798ff07d" x="93.20164" y="413.082128" style="stroke: #000000; stroke-width: 0.8"/>
      </g>
     </g>
    </g>
    <g id="xtick_9">
     <g id="line2d_31">
      <path d="M 206.73074 413.082128 
L 206.73074 227.790216 
" clip-path="url(#p7a17091738)" style="fill: none; stroke: #b0b0b0; stroke-opacity: 0.15; stroke-width: 0.8; stroke-linecap: square"/>
     </g>
     <g id="line2d_32">
      <g>
       <use xlink:href="#m18798ff07d" x="206.73074" y="413.082128" style="stroke: #000000; stroke-width: 0.8"/>
      </g>
     </g>
    </g>
    <g id="xtick_10">
     <g id="line2d_33">
      <path d="M 320.25984 413.082128 
L 320.25984 227.790216 
" clip-path="url(#p7a17091738)" style="fill: none; stroke: #b0b0b0; stroke-opacity: 0.15; stroke-width: 0.8; stroke-linecap: square"/>
     </g>
     <g id="line2d_34">
      <g>
       <use xlink:href="#m18798ff07d" x="320.25984" y="413.082128" style="stroke: #000000; stroke-width: 0.8"/>
      </g>
     </g>
    </g>
    <g id="xtick_11">
     <g id="line2d_35">
      <path d="M 433.78894 413.082128 
L 433.78894 227.790216 
" clip-path="url(#p7a17091738)" style="fill: none; stroke: #b0b0b0; stroke-opacity: 0.15; stroke-width: 0.8; stroke-linecap: square"/>
     </g>
     <g id="line2d_36">
      <g>
       <use xlink:href="#m18798ff07d" x="433.78894" y="413.082128" style="stroke: #000000; stroke-width: 0.8"/>
      </g>
     </g>
    </g>
    <g id="xtick_12">
     <g id="line2d_37">
      <path d="M 547.31804 413.082128 
L 547.31804 227.790216 
" clip-path="url(#p7a17091738)" style="fill: none; stroke: #b0b0b0; stroke-opacity: 0.15; stroke-width: 0.8; stroke-linecap: square"/>
     </g>
     <g id="line2d_38">
      <g>
       <use xlink:href="#m18798ff07d" x="547.31804" y="413.082128" style="stroke: #000000; stroke-width: 0.8"/>
      </g>
     </g>
    </g>
    <g id="xtick_13">
     <g id="line2d_39">
      <path d="M 660.84714 413.082128 
L 660.84714 227.790216 
" clip-path="url(#p7a17091738)" style="fill: none; stroke: #b0b0b0; stroke-opacity: 0.15; stroke-width: 0.8; stroke-linecap: square"/>
     </g>
     <g id="line2d_40">
      <g>
       <use xlink:href="#m18798ff07d" x="660.84714" y="413.082128" style="stroke: #000000; stroke-width: 0.8"/>
      </g>
     </g>
    </g>
    <g id="xtick_14">
     <g id="line2d_41">
      <path d="M 774.37624 413.082128 
L 774.37624 227.790216 
" clip-path="url(#p7a17091738)" style="fill: none; stroke: #b0b0b0; stroke-opacity: 0.15; stroke-width: 0.8; stroke-linecap: square"/>
     </g>
     <g id="line2d_42">
      <g>
       <use xlink:href="#m18798ff07d" x="774.37624" y="413.082128" style="stroke: #000000; stroke-width: 0.8"/>
      </g>
     </g>
    </g>
   </g>
   <g id="matplotlib.axis_4">
    <g id="ytick_7">
     <g id="line2d_43">
      <path d="M 47.79 413.082128 
L 865.19952 413.082128 
" clip-path="url(#p7a17091738)" style="fill: none; stroke: #b0b0b0; stroke-opacity: 0.15; stroke-width: 0.8; stroke-linecap: square"/>
     </g>
     <g id="line2d_44">
      <g>
       <use xlink:href="#me0ea35c2a5" x="47.79" y="413.082128" style="stroke: #000000; stroke-width: 0.8"/>
      </g>
     </g>
     <g id="text_12">
      <text style="font-size: 11px; font-family: 'Noto Sans CJK JP'; text-anchor: end" x="40.79" y="417.459784" transform="rotate(-0 40.79 417.459784)">0</text>
     </g>
    </g>
    <g id="ytick_8">
     <g id="line2d_45">
      <path d="M 47.79 378.768811 
L 865.19952 378.768811 
" clip-path="url(#p7a17091738)" style="fill: none; stroke: #b0b0b0; stroke-opacity: 0.15; stroke-width: 0.8; stroke-linecap: square"/>
     </g>
     <g id="line2d_46">
      <g>
       <use xlink:href="#me0ea35c2a5" x="47.79" y="378.768811" style="stroke: #000000; stroke-width: 0.8"/>
      </g>
     </g>
     <g id="text_13">
      <text style="font-size: 11px; font-family: 'Noto Sans CJK JP'; text-anchor: end" x="40.79" y="383.146467" transform="rotate(-0 40.79 383.146467)">20</text>
     </g>
    </g>
    <g id="ytick_9">
     <g id="line2d_47">
      <path d="M 47.79 344.455494 
L 865.19952 344.455494 
" clip-path="url(#p7a17091738)" style="fill: none; stroke: #b0b0b0; stroke-opacity: 0.15; stroke-width: 0.8; stroke-linecap: square"/>
     </g>
     <g id="line2d_48">
      <g>
       <use xlink:href="#me0ea35c2a5" x="47.79" y="344.455494" style="stroke: #000000; stroke-width: 0.8"/>
      </g>
     </g>
     <g id="text_14">
      <text style="font-size: 11px; font-family: 'Noto Sans CJK JP'; text-anchor: end" x="40.79" y="348.83315" transform="rotate(-0 40.79 348.83315)">40</text>
     </g>
    </g>
    <g id="ytick_10">
     <g id="line2d_49">
      <path d="M 47.79 310.142177 
L 865.19952 310.142177 
" clip-path="url(#p7a17091738)" style="fill: none; stroke: #b0b0b0; stroke-opacity: 0.15; stroke-width: 0.8; stroke-linecap: square"/>
     </g>
     <g id="line2d_50">
      <g>
       <use xlink:href="#me0ea35c2a5" x="47.79" y="310.142177" style="stroke: #000000; stroke-width: 0.8"/>
      </g>
     </g>
     <g id="text_15">
      <text style="font-size: 11px; font-family: 'Noto Sans CJK JP'; text-anchor: end" x="40.79" y="314.519833" transform="rotate(-0 40.79 314.519833)">60</text>
     </g>
    </g>
    <g id="ytick_11">
     <g id="line2d_51">
      <path d="M 47.79 275.82886 
L 865.19952 275.82886 
" clip-path="url(#p7a17091738)" style="fill: none; stroke: #b0b0b0; stroke-opacity: 0.15; stroke-width: 0.8; stroke-linecap: square"/>
     </g>
     <g id="line2d_52">
      <g>
       <use xlink:href="#me0ea35c2a5" x="47.79" y="275.82886" style="stroke: #000000; stroke-width: 0.8"/>
      </g>
     </g>
     <g id="text_16">
      <text style="font-size: 11px; font-family: 'Noto Sans CJK JP'; text-anchor: end" x="40.79" y="280.206516" transform="rotate(-0 40.79 280.206516)">80</text>
     </g>
    </g>
    <g id="ytick_12">
     <g id="line2d_53">
      <path d="M 47.79 241.515543 
L 865.19952 241.515543 
" clip-path="url(#p7a17091738)" style="fill: none; stroke: #b0b0b0; stroke-opacity: 0.15; stroke-width: 0.8; stroke-linecap: square"/>
     </g>
     <g id="line2d_54">
      <g>
       <use xlink:href="#me0ea35c2a5" x="47.79" y="241.515543" style="stroke: #000000; stroke-width: 0.8"/>
      </g>
     </g>
     <g id="text_17">
      <text style="font-size: 11px; font-family: 'Noto Sans CJK JP'; text-anchor: end" x="40.79" y="245.893199" transform="rotate(-0 40.79 245.893199)">100</text>
     </g>
    </g>
    <g id="text_18">
     <text style="font-size: 11px; font-family: 'Noto Sans CJK JP'; text-anchor: middle" x="15.955313" y="320.436172" transform="rotate(-90 15.955313 320.436172)">SOC / %</text>
    </g>
   </g>
   <g id="line2d_55">
    <path d="M 47.79 293.20183 
L 70.49582 293.20183 
L 70.49582 285.728883 
L 93.20164 285.728883 
L 93.20164 274.449946 
L 115.90746 274.449946 
L 115.90746 274.449946 
L 138.61328 274.449946 
L 138.61328 264.037946 
L 161.3191 264.037946 
L 161.3191 255.963238 
L 184.02492 255.963238 
L 184.02492 255.745921 
L 206.73074 255.745921 
L 206.73074 249.418935 
L 229.43656 249.418935 
L 229.43656 249.201617 
L 252.14238 249.201617 
L 252.14238 248.9843 
L 274.8482 248.9843 
L 274.8482 245.589293 
L 297.55402 245.589293 
L 297.55402 242.630714 
L 320.25984 242.630714 
L 320.25984 241.515543 
L 342.96566 241.515543 
L 342.96566 251.741902 
L 365.67148 251.741902 
L 365.67148 263.458209 
L 388.3773 263.458209 
L 388.3773 273.791492 
L 411.08312 273.791492 
L 411.08312 282.738246 
L 433.78894 282.738246 
L 433.78894 291.604506 
L 456.49476 291.604506 
L 456.49476 303.993075 
L 479.20058 303.993075 
L 479.20058 312.346465 
L 501.9064 312.346465 
L 501.9064 314.083596 
L 524.61222 314.083596 
L 524.61222 315.54755 
L 547.31804 315.54755 
L 547.31804 318.906921 
L 570.02386 318.906921 
L 570.02386 322.943446 
L 592.72968 322.943446 
L 592.72968 328.293622 
L 615.4355 328.293622 
L 615.4355 328.293622 
L 638.14132 328.293622 
L 638.14132 328.293622 
L 660.84714 328.293622 
L 660.84714 328.293622 
L 683.55296 328.293622 
L 683.55296 331.502478 
L 706.25878 331.502478 
L 706.25878 336.388465 
L 728.9646 336.388465 
L 728.9646 348.023952 
L 751.67042 348.023952 
L 751.67042 348.023952 
L 774.37624 348.023952 
L 774.37624 348.023952 
L 797.08206 348.023952 
L 797.08206 356.291075 
L 819.78788 356.291075 
L 819.78788 359.544851 
L 842.4937 359.544851 
L 842.4937 386.080465 
L 865.19952 386.080465 
L 865.19952 386.080465 
" clip-path="url(#p7a17091738)" style="fill: none; stroke: #c48b26; stroke-width: 2; stroke-linecap: square"/>
   </g>
   <g id="line2d_56">
    <path d="M 47.79 250.093872 
L 70.49582 250.093872 
L 70.49582 250.093872 
L 93.20164 250.093872 
L 93.20164 250.093872 
L 115.90746 250.093872 
L 115.90746 250.093872 
L 138.61328 250.093872 
L 138.61328 250.093872 
L 161.3191 250.093872 
L 161.3191 250.093872 
L 184.02492 250.093872 
L 184.02492 250.093872 
L 206.73074 250.093872 
L 206.73074 250.093872 
L 229.43656 250.093872 
L 229.43656 250.093872 
L 252.14238 250.093872 
L 252.14238 250.093872 
L 274.8482 250.093872 
L 274.8482 250.093872 
L 297.55402 250.093872 
L 297.55402 250.093872 
L 320.25984 250.093872 
L 320.25984 250.093872 
L 342.96566 250.093872 
L 342.96566 250.093872 
L 365.67148 250.093872 
L 365.67148 250.093872 
L 388.3773 250.093872 
L 388.3773 250.093872 
L 411.08312 250.093872 
L 411.08312 250.093872 
L 433.78894 250.093872 
L 433.78894 250.093872 
L 456.49476 250.093872 
L 456.49476 250.093872 
L 479.20058 250.093872 
L 479.20058 250.093872 
L 501.9064 250.093872 
L 501.9064 250.093872 
L 524.61222 250.093872 
L 524.61222 250.093872 
L 547.31804 250.093872 
L 547.31804 250.093872 
L 570.02386 250.093872 
L 570.02386 250.093872 
L 592.72968 250.093872 
L 592.72968 250.093872 
L 615.4355 250.093872 
L 615.4355 250.093872 
L 638.14132 250.093872 
L 638.14132 250.093872 
L 660.84714 250.093872 
L 660.84714 250.093872 
L 683.55296 250.093872 
L 683.55296 250.093872 
L 706.25878 250.093872 
L 706.25878 250.093872 
L 728.9646 250.093872 
L 728.9646 250.093872 
L 751.67042 250.093872 
L 751.67042 250.093872 
L 774.37624 250.093872 
L 774.37624 250.093872 
L 797.08206 250.093872 
L 797.08206 250.093872 
L 819.78788 250.093872 
L 819.78788 250.093872 
L 842.4937 250.093872 
L 842.4937 250.093872 
L 865.19952 250.093872 
L 865.19952 250.093872 
" clip-path="url(#p7a17091738)" style="fill: none; stroke-dasharray: 5.55,2.4; stroke-dashoffset: 0; stroke: #b65c65; stroke-width: 1.5"/>
   </g>
   <g id="line2d_57">
    <path d="M 47.79 395.925469 
L 865.19952 395.925469 
" clip-path="url(#p7a17091738)" style="fill: none; stroke-dasharray: 1.5,2.475; stroke-dashoffset: 0; stroke: #888888; stroke-width: 1.5"/>
   </g>
   <g id="patch_11">
    <path d="M 47.79 413.082128 
L 47.79 227.790216 
" style="fill: none; stroke: #000000; stroke-width: 0.8; stroke-linejoin: miter; stroke-linecap: square"/>
   </g>
   <g id="patch_12">
    <path d="M 47.79 413.082128 
L 865.19952 413.082128 
" style="fill: none; stroke: #000000; stroke-width: 0.8; stroke-linejoin: miter; stroke-linecap: square"/>
   </g>
   <g id="legend_2">
    <g id="line2d_58">
     <path d="M 55.89 399.770565 
L 64.89 399.770565 
L 64.89 399.770565 
L 73.89 399.770565 
L 73.89 399.770565 
" style="fill: none; stroke: #c48b26; stroke-width: 2; stroke-linecap: square"/>
    </g>
    <g id="text_19">
     <text style="font-size: 9px; font-family: 'Noto Sans CJK JP'; text-anchor: start" x="81.09" y="402.920565" transform="rotate(-0 81.09 402.920565)">普通电池SOC</text>
    </g>
    <g id="line2d_59">
     <path d="M 152.873437 399.770565 
L 161.873437 399.770565 
L 161.873437 399.770565 
L 170.873437 399.770565 
L 170.873437 399.770565 
" style="fill: none; stroke-dasharray: 5.55,2.4; stroke-dashoffset: 0; stroke: #b65c65; stroke-width: 1.5"/>
    </g>
    <g id="text_20">
     <text style="font-size: 9px; font-family: 'Noto Sans CJK JP'; text-anchor: start" x="178.073437" y="402.920565" transform="rotate(-0 178.073437 402.920565)">UPS SOC</text>
    </g>
    <g id="line2d_60">
     <path d="M 233.422031 399.770565 
L 242.422031 399.770565 
L 251.422031 399.770565 
" style="fill: none; stroke-dasharray: 1.5,2.475; stroke-dashoffset: 0; stroke: #888888; stroke-width: 1.5"/>
    </g>
    <g id="text_21">
     <text style="font-size: 9px; font-family: 'Noto Sans CJK JP'; text-anchor: start" x="258.622031" y="402.920565" transform="rotate(-0 258.622031 402.920565)">电池最低SOC 10%</text>
    </g>
   </g>
  </g>
  <g id="axes_3">
   <g id="patch_13">
    <path d="M 47.79 615.64952 
L 865.19952 615.64952 
L 865.19952 430.357608 
L 47.79 430.357608 
z
" style="fill: #ffffff"/>
   </g>
   <g id="patch_14">
    <path d="M 320.25984 615.64952 
L 592.72968 615.64952 
L 592.72968 430.357608 
L 320.25984 430.357608 
z
" clip-path="url(#p223af05c53)" style="fill: #e6b9b7; opacity: 0.25; stroke: #e6b9b7; stroke-linejoin: miter"/>
   </g>
   <g id="matplotlib.axis_5">
    <g id="xtick_15">
     <g id="line2d_61">
      <path d="M 93.20164 615.64952 
L 93.20164 430.357608 
" clip-path="url(#p223af05c53)" style="fill: none; stroke: #b0b0b0; stroke-opacity: 0.15; stroke-width: 0.8; stroke-linecap: square"/>
     </g>
     <g id="line2d_62">
      <g>
       <use xlink:href="#m18798ff07d" x="93.20164" y="615.64952" style="stroke: #000000; stroke-width: 0.8"/>
      </g>
     </g>
     <g id="text_22">
      <text style="font-size: 11px; font-family: 'Noto Sans CJK JP'; text-anchor: middle" x="93.20164" y="631.404832" transform="rotate(-0 93.20164 631.404832)">50</text>
     </g>
    </g>
    <g id="xtick_16">
     <g id="line2d_63">
      <path d="M 206.73074 615.64952 
L 206.73074 430.357608 
" clip-path="url(#p223af05c53)" style="fill: none; stroke: #b0b0b0; stroke-opacity: 0.15; stroke-width: 0.8; stroke-linecap: square"/>
     </g>
     <g id="line2d_64">
      <g>
       <use xlink:href="#m18798ff07d" x="206.73074" y="615.64952" style="stroke: #000000; stroke-width: 0.8"/>
      </g>
     </g>
     <g id="text_23">
      <text style="font-size: 11px; font-family: 'Noto Sans CJK JP'; text-anchor: middle" x="206.73074" y="631.404832" transform="rotate(-0 206.73074 631.404832)">55</text>
     </g>
    </g>
    <g id="xtick_17">
     <g id="line2d_65">
      <path d="M 320.25984 615.64952 
L 320.25984 430.357608 
" clip-path="url(#p223af05c53)" style="fill: none; stroke: #b0b0b0; stroke-opacity: 0.15; stroke-width: 0.8; stroke-linecap: square"/>
     </g>
     <g id="line2d_66">
      <g>
       <use xlink:href="#m18798ff07d" x="320.25984" y="615.64952" style="stroke: #000000; stroke-width: 0.8"/>
      </g>
     </g>
     <g id="text_24">
      <text style="font-size: 11px; font-family: 'Noto Sans CJK JP'; text-anchor: middle" x="320.25984" y="631.404832" transform="rotate(-0 320.25984 631.404832)">60</text>
     </g>
    </g>
    <g id="xtick_18">
     <g id="line2d_67">
      <path d="M 433.78894 615.64952 
L 433.78894 430.357608 
" clip-path="url(#p223af05c53)" style="fill: none; stroke: #b0b0b0; stroke-opacity: 0.15; stroke-width: 0.8; stroke-linecap: square"/>
     </g>
     <g id="line2d_68">
      <g>
       <use xlink:href="#m18798ff07d" x="433.78894" y="615.64952" style="stroke: #000000; stroke-width: 0.8"/>
      </g>
     </g>
     <g id="text_25">
      <text style="font-size: 11px; font-family: 'Noto Sans CJK JP'; text-anchor: middle" x="433.78894" y="631.404832" transform="rotate(-0 433.78894 631.404832)">65</text>
     </g>
    </g>
    <g id="xtick_19">
     <g id="line2d_69">
      <path d="M 547.31804 615.64952 
L 547.31804 430.357608 
" clip-path="url(#p223af05c53)" style="fill: none; stroke: #b0b0b0; stroke-opacity: 0.15; stroke-width: 0.8; stroke-linecap: square"/>
     </g>
     <g id="line2d_70">
      <g>
       <use xlink:href="#m18798ff07d" x="547.31804" y="615.64952" style="stroke: #000000; stroke-width: 0.8"/>
      </g>
     </g>
     <g id="text_26">
      <text style="font-size: 11px; font-family: 'Noto Sans CJK JP'; text-anchor: middle" x="547.31804" y="631.404832" transform="rotate(-0 547.31804 631.404832)">70</text>
     </g>
    </g>
    <g id="xtick_20">
     <g id="line2d_71">
      <path d="M 660.84714 615.64952 
L 660.84714 430.357608 
" clip-path="url(#p223af05c53)" style="fill: none; stroke: #b0b0b0; stroke-opacity: 0.15; stroke-width: 0.8; stroke-linecap: square"/>
     </g>
     <g id="line2d_72">
      <g>
       <use xlink:href="#m18798ff07d" x="660.84714" y="615.64952" style="stroke: #000000; stroke-width: 0.8"/>
      </g>
     </g>
     <g id="text_27">
      <text style="font-size: 11px; font-family: 'Noto Sans CJK JP'; text-anchor: middle" x="660.84714" y="631.404832" transform="rotate(-0 660.84714 631.404832)">75</text>
     </g>
    </g>
    <g id="xtick_21">
     <g id="line2d_73">
      <path d="M 774.37624 615.64952 
L 774.37624 430.357608 
" clip-path="url(#p223af05c53)" style="fill: none; stroke: #b0b0b0; stroke-opacity: 0.15; stroke-width: 0.8; stroke-linecap: square"/>
     </g>
     <g id="line2d_74">
      <g>
       <use xlink:href="#m18798ff07d" x="774.37624" y="615.64952" style="stroke: #000000; stroke-width: 0.8"/>
      </g>
     </g>
     <g id="text_28">
      <text style="font-size: 11px; font-family: 'Noto Sans CJK JP'; text-anchor: middle" x="774.37624" y="631.404832" transform="rotate(-0 774.37624 631.404832)">80</text>
     </g>
    </g>
    <g id="text_29">
     <text style="font-size: 11px; font-family: 'Noto Sans CJK JP'; text-anchor: middle" x="456.49476" y="646.679832" transform="rotate(-0 456.49476 646.679832)">周内小时（第60—71小时新能源母线断开）</text>
    </g>
   </g>
   <g id="matplotlib.axis_6">
    <g id="ytick_13">
     <g id="line2d_75">
      <path d="M 47.79 608.522908 
L 865.19952 608.522908 
" clip-path="url(#p223af05c53)" style="fill: none; stroke: #b0b0b0; stroke-opacity: 0.15; stroke-width: 0.8; stroke-linecap: square"/>
     </g>
     <g id="line2d_76">
      <g>
       <use xlink:href="#me0ea35c2a5" x="47.79" y="608.522908" style="stroke: #000000; stroke-width: 0.8"/>
      </g>
     </g>
     <g id="text_30">
      <text style="font-size: 11px; font-family: 'Noto Sans CJK JP'; text-anchor: end" x="40.79" y="612.900564" transform="rotate(-0 40.79 612.900564)">0</text>
     </g>
    </g>
    <g id="ytick_14">
     <g id="line2d_77">
      <path d="M 47.79 572.889848 
L 865.19952 572.889848 
" clip-path="url(#p223af05c53)" style="fill: none; stroke: #b0b0b0; stroke-opacity: 0.15; stroke-width: 0.8; stroke-linecap: square"/>
     </g>
     <g id="line2d_78">
      <g>
       <use xlink:href="#me0ea35c2a5" x="47.79" y="572.889848" style="stroke: #000000; stroke-width: 0.8"/>
      </g>
     </g>
     <g id="text_31">
      <text style="font-size: 11px; font-family: 'Noto Sans CJK JP'; text-anchor: end" x="40.79" y="577.267504" transform="rotate(-0 40.79 577.267504)">5</text>
     </g>
    </g>
    <g id="ytick_15">
     <g id="line2d_79">
      <path d="M 47.79 537.256788 
L 865.19952 537.256788 
" clip-path="url(#p223af05c53)" style="fill: none; stroke: #b0b0b0; stroke-opacity: 0.15; stroke-width: 0.8; stroke-linecap: square"/>
     </g>
     <g id="line2d_80">
      <g>
       <use xlink:href="#me0ea35c2a5" x="47.79" y="537.256788" style="stroke: #000000; stroke-width: 0.8"/>
      </g>
     </g>
     <g id="text_32">
      <text style="font-size: 11px; font-family: 'Noto Sans CJK JP'; text-anchor: end" x="40.79" y="541.634444" transform="rotate(-0 40.79 541.634444)">10</text>
     </g>
    </g>
    <g id="ytick_16">
     <g id="line2d_81">
      <path d="M 47.79 501.623728 
L 865.19952 501.623728 
" clip-path="url(#p223af05c53)" style="fill: none; stroke: #b0b0b0; stroke-opacity: 0.15; stroke-width: 0.8; stroke-linecap: square"/>
     </g>
     <g id="line2d_82">
      <g>
       <use xlink:href="#me0ea35c2a5" x="47.79" y="501.623728" style="stroke: #000000; stroke-width: 0.8"/>
      </g>
     </g>
     <g id="text_33">
      <text style="font-size: 11px; font-family: 'Noto Sans CJK JP'; text-anchor: end" x="40.79" y="506.001384" transform="rotate(-0 40.79 506.001384)">15</text>
     </g>
    </g>
    <g id="ytick_17">
     <g id="line2d_83">
      <path d="M 47.79 465.990668 
L 865.19952 465.990668 
" clip-path="url(#p223af05c53)" style="fill: none; stroke: #b0b0b0; stroke-opacity: 0.15; stroke-width: 0.8; stroke-linecap: square"/>
     </g>
     <g id="line2d_84">
      <g>
       <use xlink:href="#me0ea35c2a5" x="47.79" y="465.990668" style="stroke: #000000; stroke-width: 0.8"/>
      </g>
     </g>
     <g id="text_34">
      <text style="font-size: 11px; font-family: 'Noto Sans CJK JP'; text-anchor: end" x="40.79" y="470.368324" transform="rotate(-0 40.79 470.368324)">20</text>
     </g>
    </g>
    <g id="ytick_18">
     <g id="line2d_85">
      <path d="M 47.79 430.357608 
L 865.19952 430.357608 
" clip-path="url(#p223af05c53)" style="fill: none; stroke: #b0b0b0; stroke-opacity: 0.15; stroke-width: 0.8; stroke-linecap: square"/>
     </g>
     <g id="line2d_86">
      <g>
       <use xlink:href="#me0ea35c2a5" x="47.79" y="430.357608" style="stroke: #000000; stroke-width: 0.8"/>
      </g>
     </g>
     <g id="text_35">
      <text style="font-size: 11px; font-family: 'Noto Sans CJK JP'; text-anchor: end" x="40.79" y="434.735264" transform="rotate(-0 40.79 434.735264)">25</text>
     </g>
    </g>
    <g id="text_36">
     <text style="font-size: 11px; font-family: 'Noto Sans CJK JP'; text-anchor: middle" x="22.060313" y="523.003564" transform="rotate(-90 22.060313 523.003564)">功率 / kW</text>
    </g>
   </g>
   <g id="line2d_87">
    <path d="M 47.79 608.522908 
L 70.49582 608.522908 
L 70.49582 608.522908 
L 93.20164 608.522908 
L 93.20164 608.522908 
L 115.90746 608.522908 
L 115.90746 608.522908 
L 138.61328 608.522908 
L 138.61328 608.522908 
L 161.3191 608.522908 
L 161.3191 608.522908 
L 184.02492 608.522908 
L 184.02492 608.522908 
L 206.73074 608.522908 
L 206.73074 608.522908 
L 229.43656 608.522908 
L 229.43656 608.522908 
L 252.14238 608.522908 
L 252.14238 608.522908 
L 274.8482 608.522908 
L 274.8482 608.522908 
L 297.55402 608.522908 
L 297.55402 608.522908 
L 320.25984 608.522908 
L 320.25984 476.92852 
L 342.96566 476.92852 
L 342.96566 477.317102 
L 365.67148 477.317102 
L 365.67148 474.813517 
L 388.3773 474.813517 
L 388.3773 471.314734 
L 411.08312 471.314734 
L 411.08312 473.198859 
L 433.78894 473.198859 
L 433.78894 608.522908 
L 456.49476 608.522908 
L 456.49476 479.300159 
L 479.20058 479.300159 
L 479.20058 485.816165 
L 501.9064 485.816165 
L 501.9064 608.522908 
L 524.61222 608.522908 
L 524.61222 510.368825 
L 547.31804 510.368825 
L 547.31804 496.974282 
L 570.02386 496.974282 
L 570.02386 606.903243 
L 592.72968 606.903243 
L 592.72968 608.522908 
L 615.4355 608.522908 
L 615.4355 608.522908 
L 638.14132 608.522908 
L 638.14132 580.302268 
L 660.84714 580.302268 
L 660.84714 514.042713 
L 683.55296 514.042713 
L 683.55296 507.414096 
L 706.25878 507.414096 
L 706.25878 491.808806 
L 728.9646 491.808806 
L 728.9646 492.643059 
L 751.67042 492.643059 
L 751.67042 499.579407 
L 774.37624 499.579407 
L 774.37624 476.930857 
L 797.08206 476.930857 
L 797.08206 488.809182 
L 819.78788 488.809182 
L 819.78788 471.703016 
L 842.4937 471.703016 
L 842.4937 608.522908 
L 865.19952 608.522908 
L 865.19952 608.522908 
" clip-path="url(#p223af05c53)" style="fill: none; stroke: #529b89; stroke-width: 2; stroke-linecap: square"/>
   </g>
   <g id="line2d_88">
    <path d="M 47.79 608.522908 
L 70.49582 608.522908 
L 70.49582 608.522908 
L 93.20164 608.522908 
L 93.20164 608.522908 
L 115.90746 608.522908 
L 115.90746 608.522908 
L 138.61328 608.522908 
L 138.61328 608.522908 
L 161.3191 608.522908 
L 161.3191 608.522908 
L 184.02492 608.522908 
L 184.02492 608.522908 
L 206.73074 608.522908 
L 206.73074 608.522908 
L 229.43656 608.522908 
L 229.43656 608.522908 
L 252.14238 608.522908 
L 252.14238 608.522908 
L 274.8482 608.522908 
L 274.8482 608.522908 
L 297.55402 608.522908 
L 297.55402 608.522908 
L 320.25984 608.522908 
L 320.25984 608.522908 
L 342.96566 608.522908 
L 342.96566 608.522908 
L 365.67148 608.522908 
L 365.67148 608.522908 
L 388.3773 608.522908 
L 388.3773 608.522908 
L 411.08312 608.522908 
L 411.08312 608.522908 
L 433.78894 608.522908 
L 433.78894 608.522908 
L 456.49476 608.522908 
L 456.49476 608.522908 
L 479.20058 608.522908 
L 479.20058 608.522908 
L 501.9064 608.522908 
L 501.9064 608.522908 
L 524.61222 608.522908 
L 524.61222 608.522908 
L 547.31804 608.522908 
L 547.31804 608.522908 
L 570.02386 608.522908 
L 570.02386 608.522908 
L 592.72968 608.522908 
L 592.72968 608.522908 
L 615.4355 608.522908 
L 615.4355 608.522908 
L 638.14132 608.522908 
L 638.14132 608.522908 
L 660.84714 608.522908 
L 660.84714 608.522908 
L 683.55296 608.522908 
L 683.55296 608.522908 
L 706.25878 608.522908 
L 706.25878 608.522908 
L 728.9646 608.522908 
L 728.9646 608.522908 
L 751.67042 608.522908 
L 751.67042 608.522908 
L 774.37624 608.522908 
L 774.37624 608.522908 
L 797.08206 608.522908 
L 797.08206 608.522908 
L 819.78788 608.522908 
L 819.78788 608.522908 
L 842.4937 608.522908 
L 842.4937 608.522908 
L 865.19952 608.522908 
L 865.19952 608.522908 
" clip-path="url(#p223af05c53)" style="fill: none; stroke-dasharray: 7.4,3.2; stroke-dashoffset: 0; stroke: #b65c65; stroke-width: 2"/>
   </g>
   <g id="patch_15">
    <path d="M 47.79 615.64952 
L 47.79 430.357608 
" style="fill: none; stroke: #000000; stroke-width: 0.8; stroke-linejoin: miter; stroke-linecap: square"/>
   </g>
   <g id="patch_16">
    <path d="M 47.79 615.64952 
L 865.19952 615.64952 
" style="fill: none; stroke: #000000; stroke-width: 0.8; stroke-linejoin: miter; stroke-linecap: square"/>
   </g>
   <g id="legend_3">
    <g id="line2d_89">
     <path d="M 639.69952 445.16292 
L 650.69952 445.16292 
L 650.69952 445.16292 
L 661.69952 445.16292 
L 661.69952 445.16292 
" style="fill: none; stroke: #529b89; stroke-width: 2; stroke-linecap: square"/>
    </g>
    <g id="text_37">
     <text style="font-size: 11px; font-family: 'Noto Sans CJK JP'; text-anchor: start" x="670.49952" y="449.01292" transform="rotate(-0 670.49952 449.01292)">合法中断调节</text>
    </g>
    <g id="line2d_90">
     <path d="M 758.49952 445.16292 
L 769.49952 445.16292 
L 769.49952 445.16292 
L 780.49952 445.16292 
L 780.49952 445.16292 
" style="fill: none; stroke-dasharray: 7.4,3.2; stroke-dashoffset: 0; stroke: #b65c65; stroke-width: 2"/>
    </g>
    <g id="text_38">
     <text style="font-size: 11px; font-family: 'Noto Sans CJK JP'; text-anchor: start" x="789.29952" y="449.01292" transform="rotate(-0 789.29952 449.01292)">实际常规失供</text>
    </g>
   </g>
  </g>
  <g id="text_39">
   <text style="font-size: 16px; font-family: 'Noto Sans CJK JP'; text-anchor: middle" x="436.19976" y="19.935" transform="rotate(-0 436.19976 19.935)">暴风雪 + 新能源母线断开12小时：实际运行结果</text>
  </g>
 </g>
 <defs>
  <clipPath id="paf10ccd58f">
   <rect x="47.79" y="29.60048" width="817.40952" height="185.291912"/>
  </clipPath>
  <clipPath id="p7a17091738">
   <rect x="47.79" y="227.790216" width="817.40952" height="185.291912"/>
  </clipPath>
  <clipPath id="p223af05c53">
   <rect x="47.79" y="430.357608" width="817.40952" height="185.291912"/>
  </clipPath>
 </defs>
</svg>
